<svg width="120" height="120" viewBox="0 0 120 120" fill="none" xmlns="http://www.w3.org/2000/svg">
<rect width="120" height="120" rx="60" fill="#4B4A44"/>
<path d="M60.5 16C85.0773 16 105 35.9227 105 60.5C105 85.0773 85.0773 105 60.5 105C35.9227 105 16 85.0773 16 60.5C16 35.9227 35.9227 16 60.5 16ZM60.5 38.25C59.3198 38.25 58.1879 38.7188 57.3534 39.5534C56.5188 40.3879 56.05 41.5198 56.05 42.7V78.3C56.05 79.4802 56.5188 80.6121 57.3534 81.4466C58.1879 82.2812 59.3198 82.75 60.5 82.75C61.6802 82.75 62.8121 82.2812 63.6466 81.4466C64.4812 80.6121 64.95 79.4802 64.95 78.3V42.7C64.95 41.5198 64.4812 40.3879 63.6466 39.5534C62.8121 38.7188 61.6802 38.25 60.5 38.25Z" fill="#D1C8B2"/>
</svg>
